<?xml version="1.0" standalone="no"?>
<!DOCTYPE svg PUBLIC "-//W3C//DTD SVG 20010904//EN"
 "http://www.w3.org/TR/2001/REC-SVG-20010904/DTD/svg10.dtd">
<svg version="1.0" xmlns="http://www.w3.org/2000/svg"
 width="251.000000pt" height="251.000000pt" viewBox="0 0 251.000000 251.000000"
 preserveAspectRatio="xMidYMid meet">
<metadata>
Created by potrace 1.14, written by Peter Selinger 2001-2017
</metadata>
<g transform="translate(0.000000,251.000000) scale(0.100000,-0.100000)"
fill="#000000" stroke="none">
<path d="M1080 1837 c-71 -16 -146 -60 -171 -100 -29 -47 -21 -115 20 -174
l32 -45 -48 5 c-47 6 -48 6 -18 -8 35 -16 191 -20 200 -5 3 6 -4 10 -16 10
-72 0 -149 79 -149 152 0 97 201 168 353 124 154 -45 204 -197 95 -291 -83
-70 -183 -86 -593 -94 -352 -6 -348 -10 31 -31 336 -18 529 14 611 102 77 82
67 236 -18 301 -72 54 -222 78 -329 54z"/>
<path d="M1936 1641 c-94 -122 -143 -144 -304 -139 -99 3 -108 2 -85 -11 15
-7 64 -16 110 -19 73 -4 82 -7 71 -20 -37 -45 -219 -92 -428 -111 -130 -13
-448 -27 -808 -37 -144 -4 -239 -11 -234 -16 15 -15 551 -21 832 -9 394 16
487 32 625 104 83 44 191 155 238 245 21 39 36 72 33 72 -3 0 -25 -26 -50 -59z"/>
<path d="M2441 1369 c-106 -48 -166 -62 -248 -57 -40 3 -72 3 -70 2 2 -2 21
-10 43 -18 33 -12 35 -15 14 -16 -14 0 -59 -5 -100 -10 -61 -8 -604 -20 -1795
-41 l-110 -2 100 -8 c55 -4 406 -10 780 -14 942 -11 1133 3 1318 94 79 39 146
86 137 94 -3 2 -34 -9 -69 -24z"/>
<path d="M60 1145 l0 -35 1185 0 1185 0 0 35 0 35 -1185 0 -1185 0 0 -35z"/>
<path d="M60 995 c0 -13 -14 -74 -30 -135 -17 -61 -30 -113 -30 -116 0 -3 26
-4 58 -2 52 3 57 5 60 28 2 14 8 40 13 58 10 31 12 32 69 32 44 0 59 4 64 16
14 36 8 40 -53 36 l-60 -4 8 28 c7 28 9 29 74 29 66 0 67 0 67 28 l0 27 -120
0 -120 0 0 -25z"/>
<path d="M1046 998 c-9 -37 -8 -38 43 -38 35 0 51 4 55 16 14 37 7 44 -43 44
-42 0 -49 -3 -55 -22z"/>
<path d="M1190 998 c0 -13 -13 -68 -29 -123 -15 -55 -30 -107 -32 -115 -3 -12
8 -16 51 -18 l55 -3 33 133 c18 73 32 136 32 141 0 4 -25 7 -55 7 -50 0 -55
-2 -55 -22z"/>
<path d="M1910 1009 c0 -6 -43 -67 -95 -135 -52 -69 -95 -127 -95 -130 0 -2
15 -4 33 -4 27 0 35 6 52 38 20 36 21 37 83 40 l64 3 -4 -38 -3 -38 65 0 c53
0 64 3 61 15 -1 8 -9 56 -17 105 -27 175 -16 155 -84 155 -36 0 -60 -4 -60
-11z m25 -137 c-2 -2 -17 -2 -34 0 l-31 3 27 34 27 35 7 -35 c4 -18 6 -35 4
-37z"/>
<path d="M2156 998 c-10 -38 -8 -39 46 -36 47 3 52 6 59 31 7 27 7 27 -46 27
-46 0 -53 -3 -59 -22z"/>
<path d="M311 928 c-8 -22 -6 -23 66 -26 91 -4 89 -22 -3 -22 -74 0 -99 -17
-110 -75 -10 -55 1 -60 138 -60 l122 0 18 84 c26 116 21 121 -119 121 -98 0
-104 -1 -112 -22z m121 -113 c-3 -20 -10 -25 -33 -25 -16 0 -29 4 -29 9 0 26
15 41 40 41 24 0 27 -3 22 -25z"/>
<path d="M590 923 c0 -32 -29 -144 -41 -159 -14 -17 1 -24 53 -24 30 0 50 5
52 13 2 6 10 41 17 77 13 60 16 65 43 68 24 3 28 1 22 -13 -3 -10 -11 -38 -18
-64 -6 -25 -15 -51 -19 -57 -14 -17 1 -24 50 -24 l47 0 19 78 c18 70 22 77 47
80 l27 3 -18 -63 c-10 -35 -22 -71 -26 -80 -6 -16 -1 -18 46 -18 l54 0 18 73
c20 87 21 111 4 125 -7 6 -82 11 -195 11 l-182 0 0 -26z"/>
<path d="M1020 924 c0 -33 -29 -145 -41 -160 -14 -17 1 -24 56 -24 l51 0 23
93 c13 50 25 98 28 105 3 9 -12 12 -56 12 -59 0 -61 -1 -61 -26z"/>
<path d="M1306 903 c-21 -148 -21 -142 10 -154 16 -6 48 -9 72 -7 34 2 42 0
40 -12 -3 -12 -20 -15 -81 -15 -73 0 -77 -1 -77 -22 0 -22 3 -23 109 -23 140
0 141 1 181 148 16 62 30 117 30 122 0 6 -24 10 -53 10 l-52 0 -18 -80 c-18
-78 -19 -80 -48 -80 -16 0 -29 3 -29 8 0 4 9 39 20 77 11 38 20 71 20 72 0 2
-26 3 -59 3 l-58 0 -7 -47z"/>
<path d="M2130 922 c0 -15 -9 -60 -20 -100 -11 -39 -20 -74 -20 -77 0 -3 24
-5 53 -5 l52 0 24 93 c13 50 26 98 28 105 4 9 -11 12 -56 12 -60 0 -61 0 -61
-28z"/>
<path d="M2280 927 c0 -22 -30 -134 -45 -169 -6 -16 0 -18 52 -18 l59 0 13 65
c15 72 33 91 81 81 25 -4 30 -1 39 26 6 17 11 33 11 34 0 9 -73 3 -91 -6 -13
-7 -19 -7 -19 0 0 5 -22 10 -50 10 -45 0 -50 -2 -50 -23z"/>
</g>
</svg>
