<svg xmlns="http://www.w3.org/2000/svg" xml:space="preserve" fill="#81a7d0" viewBox="0 0 508 508"><path d="M362.8 194.6c-11.9 0-37.4 8.3-60.6 20.2a297 297 0 0 0 11.5-69.4c0-26.7-26.8-48.4-59.7-48.4-32.9 0-59.6 21.7-59.6 48.4 0 11.8 8.3 37.4 20.2 60.6a293 293 0 0 0-69.3-11.3c-26.7 0-48.4 26.7-48.4 59.6 0 32.9 21.7 59.6 48.4 59.6 11.7 0 37.1-8.2 60.3-20.1a294 294 0 0 0-11.2 68.9c0 26.7 26.7 48.4 59.6 48.4s59.6-21.7 59.6-48.4c0-11.7-8.2-37-20-60.1a297.1 297.1 0 0 0 69.1 11.3c26.8 0 48.5-26.7 48.5-59.6 0-32.9-21.8-59.7-48.4-59.7zm-148 60.4c-21.3 16.3-60.3 30.6-69.6 30.6-10.8 0-20.2-14.7-20.2-31.4s9.4-31.4 20.2-31.4c18.6 0 56.4 6.3 73.3 14.8-4.8 10.6-3.7 17.2-3.7 17.4zM254 382.9c-16.7 0-31.4-9.4-31.4-20.2 0-18.5 6.3-56.1 14.7-73.1a37 37 0 0 0 17.5 3.8c16.2 21.4 30.4 60.1 30.4 69.4.1 10.6-14.6 20.1-31.3 20.1zM243.3 254a10.8 10.8 0 1 1 21.6 0 10.8 10.8 0 0 1-21.6 0zm27.3-35.1c-11-4.2-17-3.7-17.3-3.7-16.2-21.3-30.6-60.4-30.6-69.8 0-10.8 14.7-20.2 31.4-20.2s31.4 9.4 31.4 20.2c0 18.7-6.4 56.6-15 73.5zm92.1 66.7c-18.5 0-56.3-6.3-73.2-14.8 4.1-10.1 3.6-17.1 3.6-17.4 21.3-16.3 60.3-30.6 69.6-30.6 10.9 0 20.3 14.7 20.3 31.4s-9.6 31.4-20.3 31.4z"/><path d="M465.8 0H42.4C19 0 0 19 0 42.3v423.3C0 489 19 508 42.4 508h423.3c23.3 0 42.3-19 42.3-42.3V42.3A42.2 42.2 0 0 0 465.7 0zm0 479.8H42.4a14 14 0 0 1-14.1-14.1V42.3a14 14 0 0 1 14-14.1h423.4a14 14 0 0 1 14 14.1v423.4h.2a14 14 0 0 1-14.1 14.1z"/><path d="M254 47.5C140.4 47.5 47.7 140.2 47.7 254S140.2 460.5 254 460.5 460.6 367.8 460.6 254 367.8 47.5 254 47.5zm0 384.7c-98.1 0-178-80-178-178.2 0-98.3 80-178.2 178.2-178.2 98.3 0 178.2 80 178.2 178.2 0 98.3-80 178.2-178.3 178.2zM450.4 47.5h-16.1a14 14 0 1 0 0 28.2h16.1a14 14 0 1 0 0-28.2zm-376.6.1H57.6a14 14 0 1 0 0 28.2h16.2a14 14 0 1 0 0-28.2zm376.6 384.6h-16.1a14 14 0 1 0 0 28.2h16.1a14 14 0 1 0 0-28.2zm-376.6 0H57.6a14 14 0 1 0 0 28.2h16.2a14 14 0 1 0 0-28.2z"/></svg>