<svg xmlns="http://www.w3.org/2000/svg" xml:space="preserve" viewBox="0 0 683 683"><defs><clipPath id="a" clipPathUnits="userSpaceOnUse"><path fill="#1e5794" d="M0 512h512V0H0Z" data-original="#000000"/></clipPath></defs><g fill="none" stroke="#1e5794" stroke-linecap="round" stroke-linejoin="round" stroke-miterlimit="10" stroke-width="20" clip-path="url(#a)" transform="matrix(1.33333 0 0 -1.33333 0 683)"><path d="M365 73h-42c-11 0-20-9-20-20V12m63 368v78c0 11-9 20-20 20h-77" data-original="#000000"/><path d="M203 10h100l63 63v58M107 478H30c-11 0-20-9-20-20V30c0-11 9-20 20-20h83m139 436H124c-6 0-11 5-11 12v44h150v-44c0-7-5-12-11-12Z" data-original="#000000"/><path d="m77 227 18-18 42 42m51-42h47m-47 44h90M77 118l18-18 42 42m51-42h68m-68 44h90M77 336l18-18 42 42m51-42h45m-45 44h111M158 10h0m160 314v-64c0-45 30-83 72-95 42 12 72 50 72 95v64l-72 22Z" data-original="#000000"/><path d="m390 388 112-35v-93c0-67-47-124-112-136h0c-65 12-112 69-112 136v93l112 35" data-original="#000000"/><path d="m358 259 23-23 41 40" data-original="#000000"/></g></svg>