<svg xmlns="http://www.w3.org/2000/svg" xml:space="preserve" viewBox="0 0 512 512"><path d="m386 79-50 50 5 5a209 209 0 0 1-24 15l-3 1-13-2-22-2-23 3-23-3-22 2-13 2-3-1a217 217 0 0 1-24-16l5-4-50-50L0 209l50 50 14-15 33 28a73 73 0 0 0 8 24 33 33 0 0 0 23 49 33 33 0 0 0 32 33h2a33 33 0 0 0 32 29h4a30 30 0 0 0 45 22l15-10 9 5c6 3 13 4 20 4a38 38 0 0 0 33-19h1l10-1 11-5a37 37 0 0 0 17-22l6-2c7-4 11-10 14-16 2-5 3-12 3-17v-2a41 41 0 0 0 20-18c2-4 4-8 4-13l-2-10-2-3a118 118 0 0 0 11-28l33-29 16 16 50-50L386 79zM139 320l-1 1a9 9 0 0 1-12-3l-2-5c1-3 2-6 5-7l19-13a9 9 0 0 1 13 3l10-6-10 6a9 9 0 0 1-1 11l-17 10-4 3zm26 33-5 1a9 9 0 0 1-6-15l17-10 4-3v-1l5-1a9 9 0 0 1 9 9c0 3-1 6-4 7l-20 13zm54 16-20 13-5 1a9 9 0 0 1-4-17l19-12 5-1a9 9 0 0 1 9 9c0 3-1 6-4 7zm30 20 1 4c0 2-1 4-3 5l-17 10-3 1a6 6 0 0 1-3-11l17-11h3l5 2 11-6-11 6zm132-74-5 5-9 3h-2l-6-1a53 53 0 0 1-17-12l-1-1a9 9 0 0 0-14 12l13 10a67 67 0 0 0 17 9l1 2v4l-2 10-3 2-3 1h-2c-8 0-15-3-20-7a51 51 0 0 1-8-7h-1a9 9 0 0 0-13 12s4 5 12 10c4 3 10 6 18 8v1l-6 6-6 3h-9l-1-1h-1a52 52 0 0 1-12-9h-1v-1a9 9 0 0 0-13 13l10 8 3 2-5 5c-2 2-5 2-8 2s-7 0-10-2l-4-2a30 30 0 0 0-3-23c-5-9-14-13-23-14v-1c0-6-2-12-5-18-6-10-17-15-28-15h-1c-1-5-2-9-5-13-5-9-13-14-22-15a33 33 0 0 0-50-28l-12 7-1-2-3-13v-5l-39-33 73-76a242 242 0 0 0 31 20l13 3 17-2h1a192 192 0 0 0-33 37l-7 9c-5 7-8 16-8 24s2 16 8 23c2 4 6 7 10 9l15 3c6 0 13-2 20-5a373 373 0 0 1 85-24l76 65-1 2zm9-55v5l-3 12-3 6-66-57c-3-2-6-3-9-2-1 0-49 6-97 26l-11 3-4-1-3-3-2-7c0-4 1-8 3-9l7-10a177 177 0 0 1 44-44c13-7 23-9 33-9l18 2 17 2 13-2v-1c6-2 13-6 19-11l12-9 72 75-40 34z" style="fill:#81a7d0"/></svg>