<svg xmlns="http://www.w3.org/2000/svg" version="1.1" xmlns:xlink="http://www.w3.org/1999/xlink" xmlns:svgjs="http://svgjs.com/svgjs" width="512" height="512" x="0" y="0" viewBox="0 0 64 64" style="enable-background:new 0 0 512 512" xml:space="preserve" class=""><g><path d="M28 25a14.848 14.848 0 0 0 2.76 8.65l-6.05 6.06A1.033 1.033 0 0 1 24 40h-3v3a1.003 1.003 0 0 1-1 1h-3v3a1.003 1.003 0 0 1-1 1H9a1.003 1.003 0 0 1-1-1v-7a1.033 1.033 0 0 1 .29-.71l14.34-14.33A12.76 12.76 0 0 1 22 21a12.991 12.991 0 0 1 19.98-10.96A15.007 15.007 0 0 0 28 25Zm24.402-8.953a11.207 11.207 0 0 1-6.187 7.31 4.007 4.007 0 1 1-1.522-5.968 6.5 6.5 0 0 0 2.283-4.762A12.992 12.992 0 0 0 37 36.521V56a1 1 0 0 0 .293.707l5 5a1 1 0 0 0 1.414 0l5-5a1 1 0 0 0 0-1.414L46.414 53l2.293-2.293a1 1 0 0 0 0-1.414L46.414 47l2.293-2.293A1 1 0 0 0 49 44v-7.479a12.964 12.964 0 0 0 3.402-20.474ZM43 4c3.309 0 6 3.589 6 8s-2.691 8-6 8a1 1 0 0 0 0 2c4.411 0 8-4.486 8-10S47.411 2 43 2a7.616 7.616 0 0 0-6.459 4.089 14.913 14.913 0 0 1 2.148.382A5.412 5.412 0 0 1 43 4Z" data-name="02-Door Key" fill="#81a7d0" data-original="#000000"></path></g></svg>