<svg xmlns="http://www.w3.org/2000/svg" version="1.1" xmlns:xlink="http://www.w3.org/1999/xlink" xmlns:svgjs="http://svgjs.com/svgjs" width="512" height="512" x="0" y="0" viewBox="0 0 512 512" style="enable-background:new 0 0 512 512" xml:space="preserve" class=""><g><path d="M395.139 103.823h-.011c-53.442 0-104.5-25.852-139.128-48.65-34.626 22.8-85.684 48.648-139.135 48.65a156.1 156.1 0 0 1-21.474-1.466A893.016 893.016 0 0 1 58.873 202C85.3 316.821 151.6 403.748 256 460.469c104.389-56.716 170.693-143.638 197.122-258.443-12.545-28.719-24.386-61.419-36.109-99.726a156.146 156.146 0 0 1-21.874 1.523zM306.849 310.8a22.7 22.7 0 0 1-22.3 26.961h-57.103a22.7 22.7 0 0 1-22.295-26.961l14.107-73.774a54.539 54.539 0 1 1 73.484 0zm-28.628-75.17 14.877 77.8a8.7 8.7 0 0 1-8.544 10.332h-57.108a8.7 8.7 0 0 1-8.544-10.333l14.877-77.8a7 7 0 0 0-2.586-6.846 40.539 40.539 0 1 1 49.614 0 7 7 0 0 0-2.586 6.847zm220-40.571c-17.315-37.625-32.981-82.235-49.3-140.39a7 7 0 0 0-9.767-4.421c-28.324 13.582-62.866 12.741-102.666-2.5C303 34.933 274.342 15.017 260.239 4.286a7 7 0 0 0-8.478 0C237.658 15.017 209 34.933 175.517 47.752c-39.8 15.237-74.341 16.077-102.666 2.5a7 7 0 0 0-9.8 4.55c-12.961 49.821-29.54 97.019-49.278 140.278a7 7 0 0 0-.489 4.306c14.511 71.081 42.974 133.747 84.6 186.257 39.849 50.27 92 91.577 155.012 122.773a7 7 0 0 0 6.212 0c63.01-31.2 115.164-72.5 155.012-122.773 41.624-52.51 70.087-115.176 84.6-186.257a7 7 0 0 0-.503-4.327zm-30.928 7.805C440 324.136 370.021 415.56 259.293 474.6a7 7 0 0 1-6.586 0c-110.735-59.04-180.717-150.472-208-271.756a7 7 0 0 1 .425-4.362 880.634 880.634 0 0 0 38.592-105.99 7 7 0 0 1 7.976-4.906 139.975 139.975 0 0 0 25.165 2.237c51.964 0 102.214-26.574 135.218-48.865a7 7 0 0 1 7.836 0c33 22.291 83.26 48.865 135.21 48.865h.01a139.939 139.939 0 0 0 25.513-2.3 7.007 7.007 0 0 1 7.982 4.864c12.43 41.26 24.936 75.972 38.232 106.117a7.005 7.005 0 0 1 .423 4.36z" fill="#81a7d0" data-original="#000000" class=""></path></g></svg>