<svg xmlns="http://www.w3.org/2000/svg" xml:space="preserve" viewBox="0 0 512 512"><path fill="#1e5794" d="M178 120c-2 5 0 10 3 13l33 26-11 41c-1 5 1 9 5 12 3 3 9 3 13 1l35-24 35 24a11 11 0 0 0 7 1 11 11 0 0 0 6-2c4-3 6-7 5-12l-11-41 33-26c3-3 5-8 3-13-1-4-5-7-10-8l-42-2-15-39c-2-5-6-8-11-8s-9 3-11 8l-15 39-42 2c-5 1-9 4-10 8zm56 6a11 11 0 0 0 10-7l12-31 12 31a11 11 0 0 0 10 7l33 2-26 21a11 11 0 0 0-4 11l9 32-28-18a11 11 0 0 0-12 0l-28 18 9-32a11 11 0 0 0-4-11l-26-21zm14-89V8a8 8 0 0 1 16 0v29a8 8 0 0 1-16 0zm49 48a8 8 0 0 1 0-12l33-29a8 8 0 1 1 11 12l-33 29a8 8 0 0 1-5 2 8 8 0 0 1-6-2zM171 45a8 8 0 0 1 11-1l33 29a8 8 0 0 1-11 12l-33-29a8 8 0 0 1 0-11zm188 88 33 26-11 41c-2 5 0 9 4 12s9 3 13 1l35-24 36 24a11 11 0 0 0 6 1 11 11 0 0 0 7-2c3-3 5-7 4-12l-11-41 33-26c3-3 5-8 3-13-1-4-5-7-10-8l-42-2-15-39c-2-5-6-8-11-8s-9 3-10 8l-15 39-43 2c-5 1-9 4-10 8-2 5 0 10 4 13zm52-7a11 11 0 0 0 10-7l12-31 12 31a11 11 0 0 0 10 7l33 2-26 21a11 11 0 0 0-4 11l9 32-28-18a11 11 0 0 0-12 0l-28 18 9-32a11 11 0 0 0-4-11l-26-21zM4 133l33 26-11 41c-1 5 1 9 4 12 4 3 9 3 13 1l36-24 35 24a11 11 0 0 0 6 1 11 11 0 0 0 7-2c4-3 6-7 4-12l-11-41 33-26c4-3 6-8 4-13-1-4-5-7-10-8l-43-2-15-39c-1-5-5-8-10-8s-9 3-11 8l-15 39-42 2c-5 1-9 4-10 8-2 5 0 10 3 13zm53-7a11 11 0 0 0 10-7l12-31 12 31a11 11 0 0 0 10 7l33 2-26 21a11 11 0 0 0-4 11l9 32-28-18a11 11 0 0 0-12 0l-28 18 9-32a11 11 0 0 0-4-11l-26-21zm454 299c-6-18-17-35-33-46a91 91 0 0 0-23-13 50 50 0 1 0-62 0c-16 6-30 16-40 29a120 120 0 0 0-17-19 119 119 0 0 0-45-26 64 64 0 1 0-70 0 119 119 0 0 0-45 26 120 120 0 0 0-17 19 90 90 0 0 0-40-29 50 50 0 1 0-62 0 91 91 0 0 0-23 13 92 92 0 0 0-33 46c-2 8-1 17 4 24 6 7 13 11 22 11h111v14c0 21 17 38 37 38h162c20 0 37-17 37-38v-14h111c9 0 16-4 22-11 5-7 6-16 4-24zm-87-132a34 34 0 1 1 0 68 34 34 0 0 1 0-68zm-216 4a48 48 0 1 1 48 48c-27 0-48-22-48-48zm-120-4a34 34 0 1 1 0 68 34 34 0 0 1 0-68zm51 151H27c-4 0-7-2-9-5s-3-6-1-9c9-32 38-53 71-53 25 0 48 12 62 32a118 118 0 0 0-11 35zm219 30c0 12-9 22-21 22H175c-12 0-21-10-21-22v-22c5-52 49-91 102-91s97 39 102 91zm136-35c-2 3-5 5-9 5H373a118 118 0 0 0-11-35c14-20 37-32 62-32 33 0 62 21 71 53 2 3 1 6-1 9z" data-original="#000000"/></svg>