<svg xmlns="http://www.w3.org/2000/svg" xml:space="preserve" viewBox="0 0 512 512"><g fill="#1e5794"><path d="M423 271a7 7 0 0 0-8 7 9 9 0 0 1-19 0 7 7 0 0 0-15 0 24 24 0 0 0 49 0 7 7 0 0 0-7-7z" data-original="#000000"/><path d="m492 272-21-7c-2-1-4-3-5-6a135 135 0 0 0-33-54c3-14 5-29 4-43 0-19-4-30-11-34-4-2-17-8-83 22a24 24 0 0 0-4 3 289 289 0 0 0-14-4h-2a102 102 0 0 0 9-38 7 7 0 0 0-7-7c-4-1-7 3-8 7-1 21-10 42-25 57a86 86 0 0 1-31 20 216 216 0 0 0-60 0 86 86 0 0 1-32-20 86 86 0 0 1 0-123 86 86 0 0 1 123 0 87 87 0 0 1 16 23 7 7 0 0 0 10 3 7 7 0 0 0 4-10 102 102 0 1 0-163 118 102 102 0 0 0 18 14 210 210 0 0 0-14 4 7 7 0 0 0 5 14c40-13 85-13 126 0a7 7 0 0 0 9-4 7 7 0 0 0-5-10 210 210 0 0 0-13-4 102 102 0 0 0 18-14 102 102 0 0 0 13-16 286 286 0 0 1 14 3l-1 1c-3 17-3 32 1 45 4 12 10 21 20 28 11 8 24 12 37 12 9 0 17-2 23-6 7-4 13-12 18-25a126 126 0 0 1 6 8c8 11 14 22 18 35 2 7 8 13 15 15l21 7a13 13 0 0 1 9 13v34a13 13 0 0 1-9 13l-34 11c-5 2-10 5-13 10-13 23-34 42-62 57a12 12 0 0 0-6 8l-11 57a3 3 0 0 1-3 3h-35a3 3 0 0 1-4-3l-6-31a12 12 0 0 0-13-10 311 311 0 0 1-80 2c-6-1-12 3-13 9l-6 30a3 3 0 0 1-3 3h-35a3 3 0 0 1-4-3l-10-54a12 12 0 0 0-6-8c-48-25-73-68-73-123a130 130 0 0 1 66-120 7 7 0 0 0 3-10 7 7 0 0 0-10-3c-41 24-65 60-72 106h-2l-3-15c-4-11-13-18-22-20-8-1-15 3-20 9-7 9-6 17-3 22 3 7 13 13 29 16a29 29 0 0 1-2 2c-9 12-20 15-27 15-5 0-8 3-8 8 0 4 3 7 7 7l2 1c9 0 24-4 38-22l6-8h4a196 196 0 0 0-1 12c0 31 8 59 22 83 14 21 33 39 57 52l11 53c1 9 9 15 18 15h35c8 0 16-6 18-15l5-27a314 314 0 0 0 78-2l6 29c1 9 9 15 18 15h35c9 0 16-6 18-15l10-56c30-16 53-36 67-61l5-4 33-11a28 28 0 0 0 20-27v-34a28 28 0 0 0-20-27zm-71-89c-3 25-10 46-18 50-9 5-29 6-44-5-16-11-21-31-15-58 1-3 2-5 5-6a217 217 0 0 1 70-23c2 3 5 18 2 42zM21 266c-1-2 1-4 2-6l5-3h1c3 1 8 4 10 11a23 23 0 0 1 2 7c-10-2-18-5-20-9z" data-original="#000000"/><path d="M238 98V72c9 0 13 4 16 4 4 0 5-5 5-7 0-6-12-9-21-9v-4c0-2-2-3-4-3s-4 1-4 3v4c-12 1-25 8-25 24 0 17 13 22 25 26v31c-13-1-17-10-21-10-3 0-6 4-6 7 0 7 11 15 27 16v4c0 1 2 3 4 3s4-2 4-3v-5c14-2 24-11 24-27 0-18-13-24-24-28zm-7-2c-7-3-13-6-13-13s6-10 13-11v24zm6 45v-28c7 3 12 6 12 15 0 7-5 11-12 13z" data-original="#000000"/></g></svg>