<svg xmlns="http://www.w3.org/2000/svg" xml:space="preserve" fill="#1e5794" viewBox="0 0 442 442"><path d="M232 138a10 10 0 0 0 14 14l9-8c3-3 3-8 2-11a86 86 0 0 1 21-102v66c0 3 1 6 4 8l48 33c3 2 7 2 11 0l47-33c3-2 5-5 5-8V31a87 87 0 0 1-58 152c-8 0-23-4-29-5-3-1-7 0-10 2l-30 31a10 10 0 0 0 14 14l27-27c7 2 20 5 28 5A106 106 0 0 0 442 96c0-38-21-74-54-93a10 10 0 0 0-15 9v79l-38 26-37-26V12a10 10 0 0 0-15-9 107 107 0 0 0-47 132l-4 3zm-26 133L67 410c-5 5-12 8-19 8a27 27 0 0 1-28-28c0-7 3-14 8-19l119-120a10 10 0 0 0-14-14L14 356a47 47 0 0 0 0 68 47 47 0 0 0 67 0l139-139a10 10 0 0 0-14-14z"/><path d="M47 378c-3 0-6 1-8 3-5 5-5 13 0 18a12 12 0 0 0 17 0 12 12 0 0 0-9-21zm327-51-3-2-29-11-104-103 17-17a10 10 0 0 0-11-16L88 21C78 12 65 6 52 6A50 50 0 0 0 2 57c0 13 5 26 14 35l157 157a10 10 0 0 0 16 11l17-17 104 104 10 28 2 4 59 58c1 2 4 3 7 3s5-1 7-3l38-38 2-7-2-7-59-58zM217 204l-30 30L31 78a30 30 0 0 1 0-43c5-5 13-9 21-9s16 4 21 9l157 156-13 13zm171 212-50-49-10-29-3-4-105-105 4-4 105 105 4 2 29 11 49 49-23 24z"/><path d="M59 50a10 10 0 0 0-14 14l138 138c2 2 4 3 7 3s5-1 7-3c4-4 4-11 0-14L59 50z"/></svg>