<svg xmlns="http://www.w3.org/2000/svg" xml:space="preserve" viewBox="0 0 64 64"><g fill="#1e5794"><path d="M52.63 20.52a7.24 7.24 0 0 1-.94-1.8 7.52 7.52 0 0 1-.1-2.11 6.55 6.55 0 0 0-.54-3.61 6.59 6.59 0 0 0-2.88-2.3 7.36 7.36 0 0 1-1.76-1.11 7.4 7.4 0 0 1-1.11-1.76A6.6 6.6 0 0 0 43 4.94a6.56 6.56 0 0 0-3.6-.54 7.52 7.52 0 0 1-2.12-.1 7.23 7.23 0 0 1-1.8-.93A6.64 6.64 0 0 0 32 2a6.64 6.64 0 0 0-3.48 1.36 7.24 7.24 0 0 1-1.8.95 7.6 7.6 0 0 1-2.11.1 6.56 6.56 0 0 0-3.61.54 6.59 6.59 0 0 0-2.3 2.88 7.36 7.36 0 0 1-1.11 1.76 7.4 7.4 0 0 1-1.76 1.11 6.6 6.6 0 0 0-2.89 2.3 6.56 6.56 0 0 0-.54 3.6 7.52 7.52 0 0 1-.1 2.12 7.23 7.23 0 0 1-.93 1.8A6.64 6.64 0 0 0 10 24a6.64 6.64 0 0 0 1.36 3.48 7.24 7.24 0 0 1 .95 1.8 7.52 7.52 0 0 1 .1 2.11 6.55 6.55 0 0 0 .53 3.61 6.59 6.59 0 0 0 2.89 2.3 7.36 7.36 0 0 1 1.76 1.12 7.4 7.4 0 0 1 1.11 1.75 12.68 12.68 0 0 0 .97 1.64l-5.61 15.43a1 1 0 0 0 1.26 1.29l5.3-1.8 2.92 4.8a1 1 0 0 0 .86.47h.1a1 1 0 0 0 .84-.66l5.63-15.48a3.78 3.78 0 0 0 2.06 0l5.63 15.48a1 1 0 0 0 .85.66h.1a1 1 0 0 0 .85-.48l2.91-4.79 5.31 1.8a1 1 0 0 0 1.26-1.3l-5.61-15.42a12.75 12.75 0 0 0 .97-1.64 7.36 7.36 0 0 1 1.12-1.76 7.4 7.4 0 0 1 1.75-1.11 6.6 6.6 0 0 0 2.89-2.3 6.56 6.56 0 0 0 .54-3.6 7.52 7.52 0 0 1 .1-2.12 7.23 7.23 0 0 1 .93-1.8A6.64 6.64 0 0 0 54 24a6.64 6.64 0 0 0-1.36-3.48ZM24.17 58.7l-2.25-3.69a1 1 0 0 0-1.17-.43l-4.1 1.39L21.3 43.2a7.2 7.2 0 0 0 3.3.4 7.56 7.56 0 0 1 2.12.1 7.23 7.23 0 0 1 1.8.93l.63.4Zm19.08-4.12a1 1 0 0 0-1.17.43l-2.25 3.7-4.98-13.68.63-.4a7.24 7.24 0 0 1 1.8-.93 7.55 7.55 0 0 1 2.11-.1 7.19 7.19 0 0 0 3.31-.4l4.65 12.77Zm7.7-28.17a8.72 8.72 0 0 0-1.19 2.35 9.05 9.05 0 0 0-.16 2.71 5.04 5.04 0 0 1-.28 2.53 5.06 5.06 0 0 1-2.07 1.52A8.87 8.87 0 0 0 45 37a8.84 8.84 0 0 0-1.48 2.25A5.06 5.06 0 0 1 42 41.31a5.05 5.05 0 0 1-2.53.28 9.09 9.09 0 0 0-2.7.16 8.73 8.73 0 0 0-2.37 1.19A5.08 5.08 0 0 1 32 44a5.08 5.08 0 0 1-2.4-1.05 8.72 8.72 0 0 0-2.36-1.19 6.61 6.61 0 0 0-1.72-.19l-1 .03a5.05 5.05 0 0 1-2.52-.27 5.06 5.06 0 0 1-1.52-2.08A8.87 8.87 0 0 0 19 37a8.84 8.84 0 0 0-2.25-1.48A5.06 5.06 0 0 1 14.67 34a5.04 5.04 0 0 1-.27-2.53 9.05 9.05 0 0 0-.16-2.7 8.73 8.73 0 0 0-1.19-2.37A5.08 5.08 0 0 1 12 24a5.08 5.08 0 0 1 1.05-2.4 8.72 8.72 0 0 0 1.19-2.36 9.05 9.05 0 0 0 .16-2.71 5.04 5.04 0 0 1 .28-2.53 5.06 5.06 0 0 1 2.08-1.52A8.87 8.87 0 0 0 19 11a8.84 8.84 0 0 0 1.48-2.25A5.06 5.06 0 0 1 22 6.67a5.04 5.04 0 0 1 2.53-.27 9.09 9.09 0 0 0 2.7-.16 8.73 8.73 0 0 0 2.37-1.19A5.08 5.08 0 0 1 32 4a5.08 5.08 0 0 1 2.4 1.05 8.72 8.72 0 0 0 2.36 1.19 9.09 9.09 0 0 0 2.71.16 5.04 5.04 0 0 1 2.53.28 5.06 5.06 0 0 1 1.52 2.08A8.87 8.87 0 0 0 45 11a8.84 8.84 0 0 0 2.25 1.48A5.06 5.06 0 0 1 49.31 14a5.04 5.04 0 0 1 .28 2.53 9.05 9.05 0 0 0 .16 2.7 8.73 8.73 0 0 0 1.19 2.36A5.08 5.08 0 0 1 52 24a5.08 5.08 0 0 1-1.05 2.4Z" data-original="#000000"/><path d="M32 8a16 16 0 1 0 16 16A16.02 16.02 0 0 0 32 8Zm0 30a14 14 0 1 1 14-14 14.02 14.02 0 0 1-14 14Z" data-original="#000000"/><path d="m35.59 19.01-2.7-5.45a1.04 1.04 0 0 0-1.79 0L28.41 19l-6.02.88a1 1 0 0 0-.55 1.7l4.35 4.25-1.02 6a1 1 0 0 0 1.45 1.05L32 30.05l5.38 2.83a1 1 0 0 0 1.45-1.05l-1.02-6 4.35-4.24a1 1 0 0 0-.55-1.7Zm.44 5.76a1 1 0 0 0-.28.89l.77 4.51-4.05-2.13a1 1 0 0 0-.94 0l-4.05 2.13.77-4.51a1 1 0 0 0-.28-.89l-3.28-3.2 4.53-.66a1 1 0 0 0 .75-.54L32 16.26l2.03 4.1a1 1 0 0 0 .75.55l4.53.66Z" data-original="#000000"/></g></svg>