<svg xmlns="http://www.w3.org/2000/svg" fill="none" viewBox="0 0 48 48"><path fill="none" d="M0 0h48v48H0z"/><path fill="#000" fill-rule="evenodd" d="M24 3v3-3Z" clip-rule="evenodd"/><path stroke="#000" stroke-linecap="round" stroke-linejoin="round" stroke-width="4" d="M24 3v3"/><path fill="#000" fill-rule="evenodd" d="m39 9-2 2 2-2Z" clip-rule="evenodd"/><path stroke="#000" stroke-linecap="round" stroke-linejoin="round" stroke-width="4" d="m39 9-2 2"/><path fill="#000" fill-rule="evenodd" d="M45 24h-3 3Z" clip-rule="evenodd"/><path stroke="#000" stroke-linecap="round" stroke-linejoin="round" stroke-width="4" d="M45 24h-3"/><path fill="#000" fill-rule="evenodd" d="m39 39-2-2 2 2Z" clip-rule="evenodd"/><path stroke="#000" stroke-linecap="round" stroke-linejoin="round" stroke-width="4" d="m39 39-2-2"/><path fill="#000" fill-rule="evenodd" d="M24 45v-3 3Z" clip-rule="evenodd"/><path stroke="#000" stroke-linecap="round" stroke-linejoin="round" stroke-width="4" d="M24 45v-3"/><path fill="#000" fill-rule="evenodd" d="m9 39 2-2-2 2Z" clip-rule="evenodd"/><path stroke="#000" stroke-linecap="round" stroke-linejoin="round" stroke-width="4" d="m9 39 2-2"/><path fill="#000" fill-rule="evenodd" d="M3 24h3-3Z" clip-rule="evenodd"/><path stroke="#000" stroke-linecap="round" stroke-linejoin="round" stroke-width="4" d="M3 24h3"/><path fill="#000" fill-rule="evenodd" d="m9 9 2 2-2-2Z" clip-rule="evenodd"/><path stroke="#000" stroke-linecap="round" stroke-linejoin="round" stroke-width="4" d="m9 9 2 2"/><path stroke="#000" stroke-linejoin="round" stroke-width="4" d="M24 36a12 12 0 1 0 0-24 12 12 0 0 0 0 24Z"/></svg>