<svg width="360" height="311" viewBox="0 0 360 311" fill="none" xmlns="http://www.w3.org/2000/svg">
<g opacity="0.1">
<mask id="mask0_5_237" style="mask-type:alpha" maskUnits="userSpaceOnUse" x="0" y="0" width="360" height="311">
<rect x="360" width="311" height="360" transform="rotate(90 360 0)" fill="#042925"/>
</mask>
<g mask="url(#mask0_5_237)">
<path d="M262.917 389.82C226.265 390.288 196.944 371.284 168.583 352.913C140.443 334.677 111.331 315.808 75.1912 316.269C39.0389 316.731 10.6065 336.32 -16.8877 355.267C-31.6211 365.418 -46.8596 375.919 -63.1485 383.401L-63.863 381.502C-47.7192 374.078 -32.5406 363.632 -17.8676 353.509C9.84329 334.423 38.4921 314.679 75.1433 314.211C111.794 313.743 141.116 332.747 169.477 351.118C197.616 369.354 226.729 388.223 262.869 387.762C299.009 387.301 327.453 367.711 354.947 348.75C382.658 329.664 411.307 309.92 447.958 309.452L447.994 311.511C411.842 311.972 383.409 331.562 355.915 350.522C328.217 369.609 299.556 389.352 262.917 389.82Z" fill="#F7F7F7"/>
<path d="M262.917 376.82C226.265 377.288 196.944 358.288 168.583 339.906C140.443 321.673 111.331 302.807 75.1912 303.269C39.0389 303.73 10.6064 323.317 -16.8876 342.274C-31.621 352.423 -46.8595 362.923 -63.1485 370.403L-63.863 368.505C-47.7191 361.081 -32.5407 350.624 -17.8675 340.516C9.84324 321.419 38.4921 301.679 75.1433 301.211C111.794 300.743 141.116 319.744 169.477 338.125C197.617 356.358 226.729 375.224 262.869 374.762C299.009 374.301 327.453 354.714 354.948 335.757C382.658 316.66 411.307 296.92 447.958 296.452L447.994 298.51C411.842 298.972 383.409 318.558 355.915 337.515C328.217 356.612 299.556 376.352 262.917 376.82Z" fill="#F7F7F7"/>
<path d="M262.917 363.82C226.266 364.287 196.944 345.284 168.583 326.913C140.443 308.677 111.331 289.808 75.1912 290.269C39.0389 290.73 10.6065 310.32 -16.8877 329.267C-31.621 339.418 -46.8595 349.919 -63.1484 357.401L-63.8629 355.502C-47.7191 348.078 -32.5405 337.632 -17.8675 327.509C9.84333 308.422 38.4921 288.679 75.1433 288.211C111.794 287.743 141.116 306.747 169.477 325.118C197.617 343.354 226.729 362.223 262.869 361.762C299.009 361.3 327.454 341.71 354.947 322.75C382.658 303.663 411.307 283.92 447.958 283.452L447.994 285.51C411.842 285.972 383.409 305.561 355.915 324.522C328.217 343.608 299.556 363.352 262.917 363.82Z" fill="#F7F7F7"/>
<path d="M262.917 349.82C226.265 350.288 196.944 331.281 168.583 312.907C140.443 294.667 111.331 275.794 75.1909 276.256C39.0387 276.717 10.6063 296.31 -16.8878 315.26C-31.6212 325.413 -46.8596 335.916 -63.1485 343.399L-63.8628 341.514C-47.719 334.088 -32.5404 323.641 -17.8675 313.516C9.84335 294.426 38.4921 274.679 75.1433 274.211C111.794 273.743 141.116 292.75 169.477 311.124C197.617 329.364 226.729 348.237 262.869 347.775C299.009 347.314 327.454 327.721 354.947 308.757C382.658 289.667 411.307 269.92 447.958 269.452L447.994 271.511C411.842 271.972 383.409 291.566 355.915 310.529C328.217 329.605 299.556 349.352 262.917 349.82Z" fill="#F7F7F7"/>
<path d="M263.917 336.368C227.265 336.835 197.944 317.832 169.583 299.461C141.443 281.224 112.332 262.369 76.1914 262.83C40.0391 263.292 11.6067 282.882 -15.8875 301.828C-30.6209 311.98 -45.8593 322.481 -62.1483 329.962L-62.863 328.05C-46.7192 320.625 -31.5406 310.18 -16.8676 300.057C10.8433 280.97 39.4921 261.227 76.1433 260.759C112.794 260.291 142.116 279.295 170.477 297.665C198.616 315.902 227.728 334.757 263.868 334.296C300.009 333.835 328.453 314.245 355.947 295.298C383.658 276.198 412.307 256.468 448.958 256L448.994 258.058C412.842 258.52 384.409 278.109 356.915 297.056C329.217 316.156 300.556 335.9 263.917 336.368Z" fill="#F7F7F7"/>
<path d="M262.917 323.82C226.265 324.288 196.944 305.284 168.583 286.913C140.443 268.677 111.331 249.808 75.1912 250.269C39.0389 250.731 10.6065 270.32 -16.8877 289.267C-31.6452 299.432 -46.8837 309.933 -63.1604 317.415L-63.863 315.502C-47.7192 308.078 -32.5406 297.632 -17.8676 287.509C9.84329 268.423 38.4921 248.679 75.1433 248.211C111.794 247.743 141.116 266.747 169.477 285.118C197.616 303.354 226.729 322.223 262.869 321.762C299.009 321.301 327.453 301.711 354.947 282.75C382.658 263.664 411.307 243.92 447.958 243.452L447.994 245.511C411.842 245.972 383.409 265.562 355.915 284.522C328.217 303.609 299.556 323.352 262.917 323.82Z" fill="#F7F7F7"/>
<path d="M261.917 308.82C225.265 309.288 195.944 290.284 167.583 271.913C139.443 253.677 110.332 234.822 74.1914 235.283C38.0391 235.744 9.60674 255.334 -17.8875 274.281C-32.6209 284.432 -47.8593 294.933 -64.1483 302.415L-64.863 300.502C-48.7192 293.078 -33.5406 282.632 -18.8676 272.509C8.84329 253.423 37.4921 233.679 74.1433 233.211C110.794 232.743 140.116 251.747 168.477 270.118C196.616 288.354 225.728 307.21 261.868 306.748C298.009 306.287 326.453 286.697 353.947 267.75C381.658 248.65 410.307 228.92 446.958 228.452L446.994 230.511C410.842 230.972 382.409 250.562 354.915 269.508C327.217 288.609 298.556 308.352 261.917 308.82Z" fill="#F7F7F7"/>
<path d="M261.917 295.82C225.266 296.287 195.944 277.284 167.583 258.913C139.443 240.677 110.331 221.808 74.1912 222.269C38.0389 222.73 9.60654 242.32 -17.8877 261.267C-32.621 271.418 -47.8595 281.919 -64.1484 289.401L-64.8629 287.502C-48.7191 280.078 -33.5405 269.632 -18.8675 259.509C8.84333 240.422 37.4921 220.679 74.1433 220.211C110.794 219.743 140.116 238.747 168.477 257.118C196.617 275.354 225.729 294.223 261.869 293.762C298.009 293.3 326.454 273.71 353.947 254.75C381.658 235.663 410.307 215.92 446.958 215.452L446.994 217.51C410.842 217.972 382.409 237.561 354.915 256.522C327.217 275.608 298.556 295.352 261.917 295.82Z" fill="#F7F7F7"/>
<path d="M261.917 282.82C225.265 283.288 195.944 264.284 167.583 245.913C139.443 227.677 110.331 208.808 74.1912 209.269C38.0389 209.731 9.60649 229.32 -17.8877 248.267C-32.6211 258.418 -47.8596 268.919 -64.1485 276.401L-64.8631 274.502C-48.7192 267.078 -33.5406 256.632 -18.8676 246.509C8.84329 227.423 37.4921 207.679 74.1433 207.211C110.794 206.743 140.116 225.747 168.477 244.118C196.616 262.354 225.729 281.223 261.869 280.762C298.009 280.301 326.453 260.711 353.947 241.751C381.658 222.664 410.307 202.92 446.958 202.453L446.994 204.511C410.842 204.972 382.409 224.562 354.915 243.522C327.217 262.609 298.556 282.352 261.917 282.82Z" fill="#F7F7F7"/>
<path d="M261.917 268.82C225.265 269.288 195.944 250.281 167.583 231.907C139.443 213.667 110.331 194.808 74.1912 195.269C38.0389 195.731 9.60657 215.324 -17.8876 234.274C-32.6209 244.427 -47.8594 254.93 -64.1483 262.413L-64.8628 260.514C-48.719 253.088 -33.5407 242.627 -18.8675 232.516C8.84335 213.426 37.4921 193.679 74.1433 193.211C110.794 192.743 140.116 211.75 168.477 230.124C196.617 248.364 225.729 267.223 261.869 266.762C298.009 266.3 326.453 246.707 353.947 227.757C381.658 208.653 410.307 188.92 446.958 188.452L446.994 190.511C410.842 190.972 382.409 210.566 354.915 229.515C327.217 248.605 298.556 268.352 261.917 268.82Z" fill="#F7F7F7"/>
<path d="M261.917 255.82C225.265 256.288 195.944 237.284 167.583 218.913C139.443 200.677 110.331 181.808 74.1912 182.269C38.0389 182.731 9.60649 202.32 -17.8877 221.267C-32.6211 231.418 -47.8596 241.919 -64.1486 249.401L-64.8631 247.502C-48.7192 240.078 -33.5409 229.619 -18.8676 219.509C8.84328 200.423 37.4921 180.679 74.1433 180.211C110.794 179.743 140.116 198.747 168.477 217.118C196.616 235.354 225.729 254.223 261.869 253.762C298.009 253.301 326.453 233.711 353.947 214.751C381.658 195.664 410.307 175.92 446.958 175.453L446.994 177.511C410.842 177.972 382.409 197.562 354.915 216.522C327.217 235.609 298.556 255.352 261.917 255.82Z" fill="#F7F7F7"/>
<path d="M260.917 241.82C224.265 242.288 194.944 223.284 166.583 204.913C138.443 186.677 109.332 167.822 73.1914 168.283C37.0391 168.744 8.60674 188.334 -18.8875 207.281C-33.6208 217.432 -48.8593 227.933 -65.1482 235.415L-65.863 233.502C-49.7192 226.078 -34.5406 215.632 -19.8676 205.509C7.8433 186.423 36.4921 166.679 73.1433 166.211C109.794 165.743 139.116 184.747 167.477 203.118C195.616 221.354 224.728 240.21 260.868 239.748C297.009 239.287 325.453 219.697 352.947 200.75C380.658 181.664 409.307 161.92 445.958 161.452L445.994 163.51C409.842 163.972 381.409 183.562 353.915 202.508C326.217 221.608 297.556 241.352 260.917 241.82Z" fill="#F7F7F7"/>
<path d="M260.917 228.82C224.266 229.287 194.944 210.284 166.583 191.913C138.443 173.677 109.331 154.808 73.1912 155.269C37.0389 155.73 8.60654 175.32 -18.8877 194.267C-33.621 204.418 -48.8595 214.919 -65.1484 222.401L-65.8629 220.502C-49.7191 213.078 -34.5407 202.619 -19.8675 192.509C7.84333 173.422 36.4921 153.679 73.1433 153.211C109.794 152.743 139.116 171.747 167.477 190.118C195.617 208.354 224.729 227.223 260.869 226.762C297.009 226.3 325.454 206.71 352.947 187.75C380.658 168.65 409.307 148.92 445.958 148.452L445.994 150.51C409.842 150.972 381.409 170.561 353.915 189.522C326.217 208.608 297.556 228.352 260.917 228.82Z" fill="#F7F7F7"/>
<path d="M260.917 214.82C224.265 215.288 194.944 196.284 166.583 177.913C138.443 159.677 109.331 140.808 73.1912 141.269C37.0389 141.731 8.6065 161.32 -18.8875 180.281C-33.6454 190.419 -48.8839 200.92 -65.1607 208.401L-65.863 206.502C-49.7192 199.078 -34.5406 188.632 -19.8676 178.509C7.84329 159.423 36.4921 139.679 73.1433 139.211C109.794 138.743 139.116 157.747 167.477 176.118C195.616 194.354 224.728 213.21 260.868 212.748C297.009 212.287 325.453 192.697 352.947 173.75C380.658 154.65 409.307 134.92 445.958 134.452L445.994 136.511C409.842 136.972 381.409 156.562 353.915 175.522C326.217 194.609 297.556 214.352 260.917 214.82Z" fill="#F7F7F7"/>
<path d="M260.917 201.82C224.265 202.288 194.944 183.281 166.583 164.907C138.443 146.667 109.331 127.808 73.1912 128.269C37.0389 128.731 8.60657 148.324 -18.8876 167.274C-33.6209 177.427 -48.8594 187.93 -65.1483 195.413L-65.8628 193.514C-49.719 186.088 -34.5404 175.641 -19.8675 165.516C7.84311 146.412 36.4921 126.679 73.1433 126.211C109.794 125.743 139.116 144.75 167.477 163.124C195.617 181.364 224.729 200.237 260.869 199.775C297.009 199.314 325.454 179.721 352.947 160.757C380.658 141.654 409.307 121.92 445.958 121.452L445.994 123.511C409.842 123.972 381.409 143.566 353.915 162.515C326.217 181.619 297.556 201.352 260.917 201.82Z" fill="#F7F7F7"/>
<path d="M260.917 188.82C224.265 189.288 194.944 170.284 166.583 151.913C138.443 133.677 109.332 114.822 73.1914 115.283C37.0391 115.744 8.60674 135.334 -18.8875 154.281C-33.6209 164.432 -48.8594 174.933 -65.1483 182.415L-65.8631 180.502C-49.7192 173.078 -34.5406 162.632 -19.8676 152.509C7.84329 133.423 36.4921 113.679 73.1433 113.211C109.794 112.743 139.116 131.747 167.477 150.118C195.616 168.354 224.728 187.21 260.868 186.748C297.009 186.287 325.453 166.697 352.947 147.75C380.658 128.664 409.307 108.92 445.958 108.453L445.994 110.511C409.842 110.972 381.409 130.562 353.915 149.508C326.217 168.609 297.556 188.352 260.917 188.82Z" fill="#F7F7F7"/>
<path d="M260.917 174.82C224.265 175.288 194.944 156.284 166.583 137.913C138.443 119.677 109.332 100.822 73.1914 101.283C37.0391 101.744 8.60674 121.334 -18.8875 140.281C-33.6208 150.432 -48.8593 160.933 -65.1483 168.415L-65.863 166.502C-49.7192 159.078 -34.5408 148.619 -19.8676 138.509C7.84329 119.423 36.4921 99.679 73.1433 99.2112C109.794 98.7433 139.116 117.747 167.477 136.118C195.616 154.354 224.728 173.21 260.868 172.748C297.009 172.287 325.453 152.697 352.947 133.75C380.658 114.65 409.307 94.9203 445.958 94.4524L445.994 96.5105C409.842 96.972 381.409 116.562 353.915 135.508C326.217 154.609 297.556 174.352 260.917 174.82Z" fill="#F7F7F7"/>
<path d="M259.917 161.82C223.265 162.288 193.944 143.284 165.583 124.913C137.443 106.677 108.332 87.8215 72.1914 88.2828C36.0391 88.7443 7.60675 108.334 -19.8875 127.281C-34.6208 137.432 -49.8593 147.933 -66.1482 155.415L-66.863 153.502C-50.7192 146.078 -35.5406 135.632 -20.8676 125.509C6.8433 106.423 35.4921 86.679 72.1433 86.2112C108.794 85.7433 138.116 104.747 166.477 123.118C194.616 141.354 223.728 160.21 259.868 159.748C296.009 159.287 324.453 139.697 351.947 120.75C379.658 101.65 408.307 81.9202 444.958 81.4524L444.994 83.5105C408.842 83.9719 380.409 103.562 352.915 122.508C325.217 141.608 296.556 161.352 259.917 161.82Z" fill="#F7F7F7"/>
<path d="M259.917 148.82C223.265 149.288 193.944 130.284 165.583 111.913C137.443 93.6768 108.332 74.8215 72.1914 75.2828C36.0391 75.7443 7.60676 95.3341 -19.8875 114.281C-34.6208 124.432 -49.8593 134.933 -66.1482 142.415L-66.863 140.502C-50.7191 133.078 -35.5405 122.632 -20.8676 112.509C6.84331 93.4225 35.4921 73.679 72.1433 73.2111C108.794 72.7433 138.116 91.7469 166.477 110.118C194.617 128.354 223.729 147.223 259.869 146.762C296.009 146.301 324.453 126.711 351.947 107.75C379.658 88.6499 408.307 68.9201 444.958 68.4522L444.994 70.5103C408.842 70.9718 380.409 90.5616 352.915 109.508C325.217 128.608 296.556 148.352 259.917 148.82Z" fill="#F7F7F7"/>
<path d="M259.917 134.82C223.265 135.288 193.944 116.284 165.583 97.9134C137.443 79.6769 108.332 60.8216 72.1914 61.2829C36.0513 61.7442 7.60673 81.3342 -19.8875 100.281C-34.6209 110.432 -49.8594 120.933 -66.1483 128.415L-66.8631 126.502C-50.7192 119.078 -35.5406 108.632 -20.8676 98.5091C6.84328 79.4226 35.4921 59.679 72.1433 59.2112C108.794 58.7434 138.116 77.747 166.477 96.1179C194.616 114.354 223.729 133.223 259.869 132.762C296.009 132.301 324.453 112.711 351.947 93.7506C379.658 74.664 408.307 54.9205 444.958 54.4527L444.994 56.5108C408.842 56.9722 380.409 76.562 352.915 95.5086C325.217 114.609 296.556 134.352 259.917 134.82Z" fill="#F7F7F7"/>
<path d="M259.917 121.82C223.265 122.288 193.944 103.281 165.583 84.9065C137.443 66.6668 108.331 47.8081 72.1912 48.2694C36.0389 48.7309 7.60658 68.3241 -19.8876 87.274C-34.6209 97.4272 -49.8594 107.93 -66.1483 115.413L-66.8628 113.514C-50.719 106.088 -35.5404 95.6408 -20.8674 85.5158C6.84336 66.4259 35.4921 46.679 72.1433 46.2111C108.794 45.7433 138.116 64.7503 166.477 83.1244C194.617 101.364 223.729 120.237 259.869 119.775C296.009 119.314 324.454 99.7205 351.948 80.757C379.658 61.6671 408.307 41.9201 444.958 41.4523L444.994 43.5108C408.842 43.9722 380.409 63.5654 352.915 82.5153C325.217 101.605 296.556 121.352 259.917 121.82Z" fill="#F7F7F7"/>
<path d="M259.917 108.82C223.265 109.288 193.944 90.2842 165.583 71.9134C137.443 53.6769 108.332 34.8216 72.1914 35.2829C36.0391 35.7443 7.60673 55.3341 -19.8875 74.2807C-34.6452 84.4325 -49.8837 94.9335 -66.1605 102.415L-66.8631 100.502C-50.7192 93.0777 -35.5406 82.6324 -20.8676 72.5091C6.84329 53.4226 35.4921 33.679 72.1433 33.2112C108.794 32.7434 138.116 51.747 166.477 70.1179C194.616 88.3543 223.728 107.21 259.868 106.748C296.009 106.287 324.453 86.6971 351.947 67.7505C379.658 48.6502 408.307 28.9204 444.958 28.4526L444.994 30.5107C408.842 30.9722 380.409 50.562 352.915 69.5085C325.217 88.6087 296.556 108.352 259.917 108.82Z" fill="#F7F7F7"/>
<path d="M259.917 95.8197C223.266 96.2876 193.944 77.284 165.583 58.9132C137.443 40.6767 108.332 21.8214 72.1914 22.2828C36.0391 22.7442 7.60677 42.3341 -19.8874 61.2807C-34.6451 71.4324 -49.8836 81.9335 -66.1604 89.4148L-66.863 87.5024C-50.7191 80.0777 -35.5408 69.6186 -20.8675 59.5091C6.84332 40.4225 35.4921 20.6789 72.1433 20.2111C108.794 19.7432 138.116 38.7468 166.477 57.1177C194.617 75.3541 223.728 94.2094 259.869 93.7481C296.009 93.2867 324.453 73.6967 351.947 54.7502C379.658 35.6636 408.307 15.92 444.958 15.4522L444.994 17.5103C408.842 17.9717 380.409 37.5616 352.915 56.5082C325.217 75.6083 296.556 95.352 259.917 95.8197Z" fill="#F7F7F7"/>
<path d="M259.917 81.8198C223.265 82.2876 193.944 63.2841 165.583 44.9132C137.443 26.6768 108.332 7.82148 72.1914 8.28279C36.0391 8.74426 7.60675 28.3341 -19.8875 47.2807C-34.6452 57.4325 -49.8836 67.9335 -66.1604 75.4148L-66.863 73.5024C-50.7191 66.0777 -35.5406 55.6324 -20.8676 45.5091C6.8433 26.4225 35.4921 6.67897 72.1433 6.21113C108.794 5.74329 138.116 24.7469 166.477 43.1177C194.617 61.3541 223.728 80.2095 259.868 79.7481C296.009 79.2868 324.453 59.6968 351.947 40.7503C379.658 21.65 408.307 1.92013 444.958 1.4523L444.994 3.5104C408.842 3.97187 380.409 23.5617 352.915 42.5083C325.217 61.6084 296.556 81.3521 259.917 81.8198Z" fill="#F7F7F7"/>
<path d="M259.917 68.8199C223.265 69.2877 193.944 50.2841 165.583 31.9133C137.443 13.6768 108.331 -5.19221 72.1912 -4.7309C36.0389 -4.26944 7.60651 15.3204 -19.8877 34.267C-34.6454 44.4187 -49.8839 54.9198 -66.1607 62.4011L-66.863 60.5025C-50.7192 53.0777 -35.5406 42.6324 -20.8676 32.5091C6.8433 13.4225 35.4921 -6.32102 72.1433 -6.78885C108.794 -7.25668 138.116 11.7469 166.477 30.1178C194.616 48.3542 223.728 67.2095 259.868 66.7482C296.009 66.2869 324.453 46.6969 351.947 27.7503C379.658 8.66378 408.307 -11.0798 444.958 -11.5476L444.994 -9.48951C408.842 -9.02805 380.409 10.5618 352.915 29.5221C325.217 48.6085 296.556 68.3522 259.917 68.8199Z" fill="#F7F7F7"/>
<path d="M258.917 54.8197C222.266 55.2876 192.944 36.284 164.583 17.9132C136.443 -0.323267 107.331 -19.1923 71.1912 -18.731C35.0389 -18.2695 6.60653 1.32036 -20.8877 20.2669C-35.6454 30.4187 -50.8839 40.9197 -67.1606 48.4011L-67.863 46.5025C-51.7191 39.0777 -36.5405 28.6323 -21.8675 18.5091C5.84332 -0.577493 34.4921 -20.3211 71.1433 -20.7889C107.794 -21.2568 137.116 -2.25317 165.477 16.1177C193.617 34.3541 222.729 53.2231 258.869 52.7618C295.009 52.3005 323.453 32.7105 350.947 13.7502C378.658 -5.33642 407.307 -25.08 443.958 -25.5478L443.994 -23.4897C407.842 -23.0283 379.409 -3.43841 351.915 15.5219C324.217 34.6083 295.556 54.352 258.917 54.8197Z" fill="#F7F7F7"/>
<path d="M258.917 41.8198C222.265 42.2877 192.944 23.2841 164.583 4.91324C136.443 -13.3232 107.332 -32.1785 71.1914 -31.7172C35.0391 -31.2557 6.60675 -11.6659 -20.8875 7.28068C-35.6452 17.4325 -50.8836 27.9335 -67.1604 35.4148L-67.8628 33.5162C-51.7189 26.0914 -36.5406 15.6324 -21.8673 5.52283C5.8433 -13.5775 34.4921 -33.321 71.1433 -33.7889C107.794 -34.2567 137.116 -15.2531 165.477 3.11775C193.617 21.3542 222.728 40.2095 258.868 39.7482C295.009 39.2869 323.453 19.6969 350.947 0.750313C378.658 -18.35 407.307 -38.0798 443.958 -38.5477L443.994 -36.4896C407.842 -36.0281 379.409 -16.4383 351.915 2.50832C324.217 21.6085 295.556 41.3522 258.917 41.8198Z" fill="#F7F7F7"/>
<path d="M259.634 26.242C222.978 26.6981 193.661 8.13559 165.304 -9.82228C150.178 -19.3792 134.548 -29.2784 118.033 -36.1238L118.669 -38.0083C135.332 -31.0978 151.024 -21.1592 166.199 -11.5492C194.347 6.26382 223.442 24.6951 259.599 24.2452C295.756 23.7953 324.2 4.66152 351.705 -13.844C366.54 -23.8407 381.893 -34.1657 398.309 -41.4878L399.011 -39.6198C382.74 -32.3666 367.46 -22.0828 352.672 -12.1402C324.95 6.50202 296.277 25.7861 259.634 26.242Z" fill="#F7F7F7"/>
<path d="M-67.3452 21.9831L-68.0462 20.1043C-51.9391 12.8144 -36.7951 2.55703 -22.1556 -7.3841C-7.3475 -17.4082 7.95219 -27.7889 24.3252 -35.1494L25.0261 -33.2705C8.78555 -25.9791 -6.45415 -15.6396 -21.1899 -5.64336C-35.9018 4.32562 -51.1055 14.6377 -67.3452 21.9831Z" fill="#F7F7F7"/>
<path d="M258.917 13.549C222.223 14.0094 192.87 -4.73872 164.479 -22.8762C157.492 -27.3374 150.258 -31.9581 143.031 -36.2133L143.877 -38.011C151.129 -33.7426 158.374 -29.1221 165.374 -24.6474C193.543 -6.6561 222.687 11.9593 258.881 11.5051C295.075 11.0509 323.543 -8.27382 351.084 -26.9777C357.937 -31.6262 365.005 -36.4263 372.105 -40.8748L373.013 -39.0991C365.95 -34.6646 358.881 -29.8645 352.041 -25.2297C324.295 -6.38786 295.598 13.0887 258.917 13.549Z" fill="#F7F7F7"/>
<path d="M-67.5864 7.98518L-68.2925 6.12353C-52.052 -1.10359 -36.7815 -11.2712 -22.0195 -21.112C-15.1345 -25.699 -8.01954 -30.4357 -0.886475 -34.8387L0.0258628 -33.0865C-7.0832 -28.7105 -14.1861 -23.9873 -21.0589 -19.4004C-35.8814 -9.51886 -51.2122 0.702975 -67.5864 7.98518Z" fill="#F7F7F7"/>
<path d="M258.185 0.826172C221.604 1.28311 192.338 -17.7816 164.031 -36.2252L164.923 -38.0115C193.021 -19.7166 222.066 -0.786781 258.149 -1.2375C294.232 -1.68822 322.61 -21.3216 350.05 -40.3102L351.016 -38.5472C323.347 -19.418 294.754 0.369382 258.185 0.826172Z" fill="#F7F7F7"/>
</g>
</g>
</svg>
